# xmcd
#
# Track frame offsets: 
#        150
#        11510
#        32268
#
# Disc length: 554 seconds
#
# Revision: 0
# Processed by: cddbd v1.5.2PL0 Copyright (c) Steve Scherf et al.
# Submitted via: ExactAudioCopy v0.99pb5
#
DISCID=12022803
DTITLE=Della Mae - Della Mae
DYEAR=2010
DGENRE=Bluegrass
TTITLE0=Unwated Love
TTITLE1=Song For You
TTITLE2=Fist City
EXTD=
EXTT0=
EXTT1=
EXTT2=
PLAYORDER=
